<mxfile host="app.diagrams.net" agent="Mozilla/5.0 (Macintosh; Intel Mac OS X 10_15_7) AppleWebKit/537.36 (KHTML, like Gecko) Chrome/133.0.0.0 Safari/537.36" version="26.1.1">
  <diagram name="Page-1" id="y06rnFOcyYg07HTtk7I7">
    <mxGraphModel grid="1" page="1" gridSize="10" guides="1" tooltips="1" connect="1" arrows="1" fold="1" pageScale="1" pageWidth="827" pageHeight="1169" math="0" shadow="0">
      <root>
        <mxCell id="0" />
        <mxCell id="1" parent="0" />
        <mxCell id="3FQP7Zj7iUDV4RMBYiaK-109" value="&lt;b&gt;BLINKIT_CUSTOMER&lt;/b&gt;" style="swimlane;childLayout=stackLayout;horizontal=1;startSize=50;horizontalStack=0;rounded=0;fontSize=14;fontStyle=0;strokeWidth=2;resizeParent=0;resizeLast=1;shadow=0;dashed=0;align=center;arcSize=4;whiteSpace=wrap;html=1;" vertex="1" parent="1">
          <mxGeometry x="-40" y="180" width="160" height="220" as="geometry" />
        </mxCell>
        <mxCell id="3FQP7Zj7iUDV4RMBYiaK-110" value="&lt;b&gt;&lt;u&gt;CustomerID&lt;/u&gt;&lt;/b&gt;&lt;div&gt;customer_name&lt;/div&gt;&lt;div&gt;email&lt;/div&gt;&lt;div&gt;phone&lt;/div&gt;&lt;div&gt;address&lt;/div&gt;&lt;div&gt;area&lt;/div&gt;&lt;div&gt;pincode&lt;/div&gt;&lt;div&gt;registration_date&lt;/div&gt;&lt;div&gt;customer_segment&lt;/div&gt;&lt;div&gt;total orders&lt;/div&gt;&lt;div&gt;avg order value&lt;/div&gt;&lt;div&gt;&lt;br&gt;&lt;/div&gt;" style="align=left;strokeColor=none;fillColor=none;spacingLeft=4;spacingRight=4;fontSize=12;verticalAlign=top;resizable=0;rotatable=0;part=1;html=1;whiteSpace=wrap;" vertex="1" parent="3FQP7Zj7iUDV4RMBYiaK-109">
          <mxGeometry y="50" width="160" height="170" as="geometry" />
        </mxCell>
        <mxCell id="3FQP7Zj7iUDV4RMBYiaK-111" value="&lt;b&gt;BLINKIT_PRODUCTS&lt;/b&gt;" style="swimlane;childLayout=stackLayout;horizontal=1;startSize=50;horizontalStack=0;rounded=0;fontSize=14;fontStyle=0;strokeWidth=2;resizeParent=0;resizeLast=1;shadow=0;dashed=0;align=center;arcSize=4;whiteSpace=wrap;html=1;" vertex="1" parent="1">
          <mxGeometry x="880" y="180" width="160" height="200" as="geometry" />
        </mxCell>
        <mxCell id="3FQP7Zj7iUDV4RMBYiaK-112" value="&lt;b&gt;&lt;u&gt;ProductID&lt;/u&gt;&lt;/b&gt;&lt;div&gt;product name&lt;/div&gt;&lt;div&gt;category&lt;/div&gt;&lt;div&gt;brand&lt;/div&gt;&lt;div&gt;price&lt;/div&gt;&lt;div&gt;mrp&lt;/div&gt;&lt;div&gt;margin_percentage&lt;/div&gt;&lt;div&gt;shelf life days&lt;/div&gt;&lt;div&gt;min stock level&lt;/div&gt;&lt;div&gt;max level stock&lt;/div&gt;" style="align=left;strokeColor=none;fillColor=none;spacingLeft=4;spacingRight=4;fontSize=12;verticalAlign=top;resizable=0;rotatable=0;part=1;html=1;whiteSpace=wrap;" vertex="1" parent="3FQP7Zj7iUDV4RMBYiaK-111">
          <mxGeometry y="50" width="160" height="150" as="geometry" />
        </mxCell>
        <mxCell id="JYVeFwcHpj_07sLq7fxB-6" style="edgeStyle=orthogonalEdgeStyle;rounded=0;orthogonalLoop=1;jettySize=auto;html=1;exitX=0.5;exitY=0;exitDx=0;exitDy=0;entryX=0.5;entryY=1;entryDx=0;entryDy=0;endArrow=ERmandOne;endFill=0;startArrow=ERzeroToMany;startFill=0;" edge="1" parent="1" source="3FQP7Zj7iUDV4RMBYiaK-113" target="JYVeFwcHpj_07sLq7fxB-3">
          <mxGeometry relative="1" as="geometry" />
        </mxCell>
        <mxCell id="JYVeFwcHpj_07sLq7fxB-8" style="edgeStyle=orthogonalEdgeStyle;rounded=0;orthogonalLoop=1;jettySize=auto;html=1;exitX=0.75;exitY=0;exitDx=0;exitDy=0;entryX=0.5;entryY=1;entryDx=0;entryDy=0;endArrow=ERmandOne;endFill=0;startArrow=ERoneToMany;startFill=0;" edge="1" parent="1" source="3FQP7Zj7iUDV4RMBYiaK-113" target="JYVeFwcHpj_07sLq7fxB-5">
          <mxGeometry relative="1" as="geometry">
            <Array as="points">
              <mxPoint x="454" y="170" />
              <mxPoint x="645" y="170" />
            </Array>
          </mxGeometry>
        </mxCell>
        <mxCell id="3FQP7Zj7iUDV4RMBYiaK-113" value="&lt;b&gt;&lt;u&gt;BLINKIT_ORDERS&lt;/u&gt;&lt;/b&gt;" style="swimlane;childLayout=stackLayout;horizontal=1;startSize=50;horizontalStack=0;rounded=0;fontSize=14;fontStyle=0;strokeWidth=2;resizeParent=0;resizeLast=1;shadow=0;dashed=0;align=center;arcSize=4;whiteSpace=wrap;html=1;" vertex="1" parent="1">
          <mxGeometry x="334" y="190" width="160" height="200" as="geometry" />
        </mxCell>
        <mxCell id="3FQP7Zj7iUDV4RMBYiaK-114" value="&lt;b&gt;&lt;u&gt;orderID&lt;/u&gt;&lt;/b&gt;&lt;div&gt;&lt;b&gt;&lt;u&gt;customerID&lt;/u&gt;&lt;/b&gt;&lt;/div&gt;&lt;div&gt;order date&lt;/div&gt;&lt;div&gt;promised delivery time&lt;/div&gt;&lt;div&gt;actual delivery time&lt;/div&gt;&lt;div&gt;delivery status&lt;/div&gt;&lt;div&gt;order total&amp;nbsp;&lt;/div&gt;&lt;div&gt;payment method&lt;/div&gt;&lt;div&gt;storeID&lt;/div&gt;&lt;div&gt;delivery partnerID&lt;/div&gt;&lt;div&gt;&lt;br&gt;&lt;/div&gt;" style="align=left;strokeColor=none;fillColor=none;spacingLeft=4;spacingRight=4;fontSize=12;verticalAlign=top;resizable=0;rotatable=0;part=1;html=1;whiteSpace=wrap;" vertex="1" parent="3FQP7Zj7iUDV4RMBYiaK-113">
          <mxGeometry y="50" width="160" height="150" as="geometry" />
        </mxCell>
        <mxCell id="3FQP7Zj7iUDV4RMBYiaK-117" value="&lt;b&gt;BLINKIT_ORDER_ITEMS&lt;/b&gt;" style="swimlane;childLayout=stackLayout;horizontal=1;startSize=50;horizontalStack=0;rounded=0;fontSize=14;fontStyle=0;strokeWidth=2;resizeParent=0;resizeLast=1;shadow=0;dashed=0;align=center;arcSize=4;whiteSpace=wrap;html=1;" vertex="1" parent="1">
          <mxGeometry x="590" y="220" width="190" height="120" as="geometry" />
        </mxCell>
        <mxCell id="3FQP7Zj7iUDV4RMBYiaK-118" value="&lt;b&gt;&lt;u&gt;orderID&lt;/u&gt;&lt;/b&gt;&lt;div&gt;&lt;b&gt;&lt;u&gt;ProductID&lt;/u&gt;&lt;/b&gt;&lt;/div&gt;&lt;div&gt;quantity&lt;/div&gt;&lt;div&gt;unit_price&lt;/div&gt;" style="align=left;strokeColor=none;fillColor=none;spacingLeft=4;spacingRight=4;fontSize=12;verticalAlign=top;resizable=0;rotatable=0;part=1;html=1;whiteSpace=wrap;" vertex="1" parent="3FQP7Zj7iUDV4RMBYiaK-117">
          <mxGeometry y="50" width="190" height="70" as="geometry" />
        </mxCell>
        <mxCell id="3FQP7Zj7iUDV4RMBYiaK-123" value="&lt;b&gt;BLINKIT_CUSTOMER_FEEDBACK&lt;/b&gt;" style="swimlane;childLayout=stackLayout;horizontal=1;startSize=50;horizontalStack=0;rounded=0;fontSize=14;fontStyle=0;strokeWidth=2;resizeParent=0;resizeLast=1;shadow=0;dashed=0;align=center;arcSize=4;whiteSpace=wrap;html=1;" vertex="1" parent="1">
          <mxGeometry x="294" y="470" width="240" height="175" as="geometry" />
        </mxCell>
        <mxCell id="3FQP7Zj7iUDV4RMBYiaK-124" value="&lt;b&gt;&lt;u&gt;feedbackID&lt;/u&gt;&lt;/b&gt;&lt;div&gt;&lt;b&gt;&lt;u&gt;orderID&lt;/u&gt;&lt;/b&gt;&lt;/div&gt;&lt;div&gt;&lt;b&gt;&lt;u&gt;customerID&lt;/u&gt;&lt;/b&gt;&lt;/div&gt;&lt;div&gt;rating&lt;/div&gt;&lt;div&gt;feedback text&lt;/div&gt;&lt;div&gt;feedback category&lt;/div&gt;&lt;div&gt;feedback date&lt;/div&gt;" style="align=left;strokeColor=none;fillColor=none;spacingLeft=4;spacingRight=4;fontSize=12;verticalAlign=top;resizable=0;rotatable=0;part=1;html=1;whiteSpace=wrap;" vertex="1" parent="3FQP7Zj7iUDV4RMBYiaK-123">
          <mxGeometry y="50" width="240" height="125" as="geometry" />
        </mxCell>
        <mxCell id="PaVeQNF0_1uJ8ivoW8iE-1" style="edgeStyle=orthogonalEdgeStyle;rounded=0;orthogonalLoop=1;jettySize=auto;html=1;exitX=0.5;exitY=0;exitDx=0;exitDy=0;entryX=0.5;entryY=1;entryDx=0;entryDy=0;endArrow=ERmandOne;endFill=0;startArrow=ERoneToMany;startFill=0;" edge="1" parent="1" source="3FQP7Zj7iUDV4RMBYiaK-126" target="3FQP7Zj7iUDV4RMBYiaK-112">
          <mxGeometry relative="1" as="geometry" />
        </mxCell>
        <mxCell id="3FQP7Zj7iUDV4RMBYiaK-126" value="&lt;b&gt;BLINKIT_INVENTORY&lt;/b&gt;" style="swimlane;childLayout=stackLayout;horizontal=1;startSize=50;horizontalStack=0;rounded=0;fontSize=14;fontStyle=0;strokeWidth=2;resizeParent=0;resizeLast=1;shadow=0;dashed=0;align=center;arcSize=4;whiteSpace=wrap;html=1;" vertex="1" parent="1">
          <mxGeometry x="880" y="462.5" width="160" height="130" as="geometry" />
        </mxCell>
        <mxCell id="3FQP7Zj7iUDV4RMBYiaK-127" value="ProductID&lt;div&gt;date&lt;/div&gt;&lt;div&gt;stock received&lt;/div&gt;&lt;div&gt;damaged stock&lt;/div&gt;" style="align=left;strokeColor=none;fillColor=none;spacingLeft=4;spacingRight=4;fontSize=12;verticalAlign=top;resizable=0;rotatable=0;part=1;html=1;whiteSpace=wrap;" vertex="1" parent="3FQP7Zj7iUDV4RMBYiaK-126">
          <mxGeometry y="50" width="160" height="80" as="geometry" />
        </mxCell>
        <mxCell id="3FQP7Zj7iUDV4RMBYiaK-128" value="&lt;b&gt;BLINKIT_MARKETING_PERFORMANCE&lt;/b&gt;" style="swimlane;childLayout=stackLayout;horizontal=1;startSize=50;horizontalStack=0;rounded=0;fontSize=14;fontStyle=0;strokeWidth=2;resizeParent=0;resizeLast=1;shadow=0;dashed=0;align=center;arcSize=4;whiteSpace=wrap;html=1;" vertex="1" parent="1">
          <mxGeometry x="1420" y="160" width="270" height="220" as="geometry" />
        </mxCell>
        <mxCell id="3FQP7Zj7iUDV4RMBYiaK-129" value="&lt;b&gt;&lt;u&gt;campaignID&lt;/u&gt;&lt;/b&gt;&lt;div&gt;campaign name&lt;/div&gt;&lt;div&gt;date&lt;/div&gt;&lt;div&gt;target audience&lt;/div&gt;&lt;div&gt;channel&lt;/div&gt;&lt;div&gt;clicks&lt;/div&gt;&lt;div&gt;conversations&lt;/div&gt;&lt;div&gt;roas&lt;/div&gt;&lt;div&gt;revenue generated&lt;/div&gt;&lt;div&gt;spend&lt;/div&gt;&lt;div&gt;impressions&lt;/div&gt;" style="align=left;strokeColor=none;fillColor=none;spacingLeft=4;spacingRight=4;fontSize=12;verticalAlign=top;resizable=0;rotatable=0;part=1;html=1;whiteSpace=wrap;" vertex="1" parent="3FQP7Zj7iUDV4RMBYiaK-128">
          <mxGeometry y="50" width="270" height="170" as="geometry" />
        </mxCell>
        <mxCell id="PaVeQNF0_1uJ8ivoW8iE-2" style="edgeStyle=orthogonalEdgeStyle;rounded=0;orthogonalLoop=1;jettySize=auto;html=1;exitX=0.5;exitY=0;exitDx=0;exitDy=0;entryX=0.25;entryY=1;entryDx=0;entryDy=0;endArrow=ERoneToMany;endFill=0;startArrow=ERmandOne;startFill=0;" edge="1" parent="1" source="3FQP7Zj7iUDV4RMBYiaK-130" target="3FQP7Zj7iUDV4RMBYiaK-114">
          <mxGeometry relative="1" as="geometry" />
        </mxCell>
        <mxCell id="3FQP7Zj7iUDV4RMBYiaK-130" value="&lt;b&gt;BLINKIT_DELIVERY_PERFORMANCE&lt;/b&gt;" style="swimlane;childLayout=stackLayout;horizontal=1;startSize=50;horizontalStack=0;rounded=0;fontSize=14;fontStyle=0;strokeWidth=2;resizeParent=0;resizeLast=1;shadow=0;dashed=0;align=center;arcSize=4;whiteSpace=wrap;html=1;" vertex="1" parent="1">
          <mxGeometry x="-60" y="462.5" width="260" height="190" as="geometry" />
        </mxCell>
        <mxCell id="3FQP7Zj7iUDV4RMBYiaK-131" value="&lt;b style=&quot;&quot;&gt;&lt;u&gt;orderID&lt;/u&gt;&lt;/b&gt;&lt;div&gt;&lt;b&gt;&lt;u&gt;delivery partnerID&lt;/u&gt;&lt;/b&gt;&lt;/div&gt;&lt;div&gt;&lt;b style=&quot;&quot;&gt;&lt;u&gt;customerID&lt;/u&gt;&lt;/b&gt;&lt;/div&gt;&lt;div&gt;promised time&lt;/div&gt;&lt;div&gt;actual time&lt;/div&gt;&lt;div&gt;delivery time minutes&lt;/div&gt;&lt;div&gt;distance km&lt;/div&gt;&lt;div&gt;distance status&lt;/div&gt;&lt;div&gt;reasons_if_delayed&lt;/div&gt;" style="align=left;strokeColor=none;fillColor=none;spacingLeft=4;spacingRight=4;fontSize=12;verticalAlign=top;resizable=0;rotatable=0;part=1;html=1;whiteSpace=wrap;" vertex="1" parent="3FQP7Zj7iUDV4RMBYiaK-130">
          <mxGeometry y="50" width="260" height="140" as="geometry" />
        </mxCell>
        <mxCell id="3FQP7Zj7iUDV4RMBYiaK-133" style="edgeStyle=orthogonalEdgeStyle;rounded=0;orthogonalLoop=1;jettySize=auto;html=1;exitX=1;exitY=0.5;exitDx=0;exitDy=0;entryX=0;entryY=0.5;entryDx=0;entryDy=0;endArrow=ERzeroToMany;endFill=0;startArrow=ERmandOne;startFill=0;" edge="1" parent="1" source="3FQP7Zj7iUDV4RMBYiaK-110" target="3FQP7Zj7iUDV4RMBYiaK-114">
          <mxGeometry relative="1" as="geometry" />
        </mxCell>
        <mxCell id="_lz8bZvO0PPW8Vb-i6Rp-1" style="edgeStyle=orthogonalEdgeStyle;rounded=0;orthogonalLoop=1;jettySize=auto;html=1;exitX=1;exitY=0.5;exitDx=0;exitDy=0;entryX=0;entryY=0.5;entryDx=0;entryDy=0;endArrow=ERmandOne;endFill=0;startArrow=ERzeroToMany;startFill=0;" edge="1" parent="1" source="3FQP7Zj7iUDV4RMBYiaK-118" target="3FQP7Zj7iUDV4RMBYiaK-112">
          <mxGeometry relative="1" as="geometry">
            <Array as="points">
              <mxPoint x="880" y="305" />
              <mxPoint x="880" y="305" />
            </Array>
          </mxGeometry>
        </mxCell>
        <mxCell id="_lz8bZvO0PPW8Vb-i6Rp-2" style="edgeStyle=orthogonalEdgeStyle;rounded=0;orthogonalLoop=1;jettySize=auto;html=1;exitX=1;exitY=0.5;exitDx=0;exitDy=0;endArrow=ERoneToMany;endFill=0;startArrow=ERmandOne;startFill=0;" edge="1" parent="1" source="3FQP7Zj7iUDV4RMBYiaK-114" target="3FQP7Zj7iUDV4RMBYiaK-118">
          <mxGeometry relative="1" as="geometry" />
        </mxCell>
        <mxCell id="PaVeQNF0_1uJ8ivoW8iE-6" value="&lt;b&gt;BLINKIT_CAMPAIGN_IMPACT&lt;/b&gt;" style="swimlane;childLayout=stackLayout;horizontal=1;startSize=50;horizontalStack=0;rounded=1;fontSize=14;fontStyle=0;strokeWidth=2;resizeParent=0;resizeLast=1;shadow=0;dashed=0;align=center;arcSize=4;whiteSpace=wrap;html=1;" vertex="1" parent="1">
          <mxGeometry x="1120" y="210" width="210" height="120" as="geometry" />
        </mxCell>
        <mxCell id="PaVeQNF0_1uJ8ivoW8iE-7" value="ImpactID(ProductID,&amp;nbsp;&lt;span style=&quot;background-color: transparent; color: light-dark(rgb(0, 0, 0), rgb(255, 255, 255));&quot;&gt;CampaignID)&lt;/span&gt;&lt;div&gt;&lt;span style=&quot;background-color: transparent; color: light-dark(rgb(0, 0, 0), rgb(255, 255, 255));&quot;&gt;increased_orders&lt;/span&gt;&lt;/div&gt;" style="align=left;strokeColor=none;fillColor=none;spacingLeft=4;spacingRight=4;fontSize=12;verticalAlign=top;resizable=0;rotatable=0;part=1;html=1;whiteSpace=wrap;" vertex="1" parent="PaVeQNF0_1uJ8ivoW8iE-6">
          <mxGeometry y="50" width="210" height="70" as="geometry" />
        </mxCell>
        <mxCell id="PaVeQNF0_1uJ8ivoW8iE-8" style="edgeStyle=orthogonalEdgeStyle;rounded=0;orthogonalLoop=1;jettySize=auto;html=1;exitX=1;exitY=0.25;exitDx=0;exitDy=0;entryX=0;entryY=0.5;entryDx=0;entryDy=0;endArrow=ERzeroToMany;endFill=0;startArrow=ERmandOne;startFill=0;" edge="1" parent="1" source="3FQP7Zj7iUDV4RMBYiaK-112" target="PaVeQNF0_1uJ8ivoW8iE-6">
          <mxGeometry relative="1" as="geometry" />
        </mxCell>
        <mxCell id="PaVeQNF0_1uJ8ivoW8iE-9" style="edgeStyle=orthogonalEdgeStyle;rounded=0;orthogonalLoop=1;jettySize=auto;html=1;exitX=-0.006;exitY=0.402;exitDx=0;exitDy=0;entryX=1;entryY=0.25;entryDx=0;entryDy=0;endArrow=ERoneToMany;endFill=0;startArrow=ERmandOne;startFill=0;exitPerimeter=0;" edge="1" parent="1" source="3FQP7Zj7iUDV4RMBYiaK-129" target="PaVeQNF0_1uJ8ivoW8iE-7">
          <mxGeometry relative="1" as="geometry" />
        </mxCell>
        <mxCell id="JYVeFwcHpj_07sLq7fxB-2" value="&lt;b&gt;BLINKIT_STORES&lt;/b&gt;" style="swimlane;childLayout=stackLayout;horizontal=1;startSize=50;horizontalStack=0;rounded=0;fontSize=14;fontStyle=0;strokeWidth=2;resizeParent=0;resizeLast=1;shadow=0;dashed=0;align=center;arcSize=4;whiteSpace=wrap;html=1;" vertex="1" parent="1">
          <mxGeometry x="90" y="20" width="160" height="130" as="geometry" />
        </mxCell>
        <mxCell id="JYVeFwcHpj_07sLq7fxB-3" value="&lt;b&gt;&lt;u&gt;store_id&lt;br&gt;&lt;/u&gt;&lt;/b&gt;store_name&lt;div&gt;store_address&lt;/div&gt;&lt;div&gt;store_phone&lt;/div&gt;&lt;div&gt;owner_name&lt;/div&gt;&lt;div&gt;&lt;br&gt;&lt;/div&gt;" style="align=left;strokeColor=none;fillColor=none;spacingLeft=4;spacingRight=4;fontSize=12;verticalAlign=top;resizable=0;rotatable=0;part=1;html=1;whiteSpace=wrap;" vertex="1" parent="JYVeFwcHpj_07sLq7fxB-2">
          <mxGeometry y="50" width="160" height="80" as="geometry" />
        </mxCell>
        <mxCell id="JYVeFwcHpj_07sLq7fxB-4" value="&lt;b&gt;BLINKIT_DELIVERY_PARTNER&lt;/b&gt;" style="swimlane;childLayout=stackLayout;horizontal=1;startSize=50;horizontalStack=0;rounded=0;fontSize=14;fontStyle=0;strokeWidth=2;resizeParent=0;resizeLast=1;shadow=0;dashed=0;align=center;arcSize=4;whiteSpace=wrap;html=1;" vertex="1" parent="1">
          <mxGeometry x="520" y="-20" width="250" height="150" as="geometry" />
        </mxCell>
        <mxCell id="JYVeFwcHpj_07sLq7fxB-5" value="&lt;b&gt;&lt;u&gt;delivery_partnerID&lt;/u&gt;&lt;/b&gt;&lt;br&gt;delivery_partner_name&lt;div&gt;Phone&lt;/div&gt;&lt;div&gt;delivery_area&lt;/div&gt;&lt;div&gt;date_joined&lt;br&gt;&lt;br&gt;&lt;/div&gt;" style="align=left;strokeColor=none;fillColor=none;spacingLeft=4;spacingRight=4;fontSize=12;verticalAlign=top;resizable=0;rotatable=0;part=1;html=1;whiteSpace=wrap;" vertex="1" parent="JYVeFwcHpj_07sLq7fxB-4">
          <mxGeometry y="50" width="250" height="100" as="geometry" />
        </mxCell>
        <mxCell id="FkbDv8gm4fMAR_b3d7z_-2" style="edgeStyle=orthogonalEdgeStyle;rounded=0;orthogonalLoop=1;jettySize=auto;html=1;startArrow=ERmandOne;startFill=0;endArrow=ERmandOne;endFill=0;exitX=0.483;exitY=0;exitDx=0;exitDy=0;exitPerimeter=0;" edge="1" parent="1" source="3FQP7Zj7iUDV4RMBYiaK-123">
          <mxGeometry relative="1" as="geometry">
            <Array as="points">
              <mxPoint x="410" y="410" />
              <mxPoint x="431" y="410" />
            </Array>
            <mxPoint x="450" y="430" as="sourcePoint" />
            <mxPoint x="431" y="390" as="targetPoint" />
          </mxGeometry>
        </mxCell>
      </root>
    </mxGraphModel>
  </diagram>
</mxfile>
